<svg xmlns="http://www.w3.org/2000/svg" width="62" height="62" viewBox="0 0 62 62"><path d="M34.5957 24.2353C33.5957 23.2353 37.865 16.7353 39.0957 17.2353C40.3264 17.7353 35.5957 25.2353 34.5957 24.2353Z" fill="#FFFFFF"></path><path fill-rule="evenodd" clip-rule="evenodd" d="M41.0957 11.2353C41.0957 11.2353 40.1361 13.816 39.0957 15.7353C37.0957 14.7353 31.5957 23.7353 33.0957 25.2353C32.2006 27.1383 30.5957 29.7353 31.0957 30.2353C31.5957 30.7353 33.5957 27.7353 34.5957 26.2353C36.5957 27.2353 42.0957 17.7353 40.0957 16.2353C41.2672 14.2827 42.5957 12.2353 42.5957 12.2353C43.5957 10.7353 52.0187 16.7353 51.0957 20.7353C48.2894 32.8956 42.3894 35.9729 42.0957 37.7353C40.5957 46.7353 33.5957 53.2353 23.5957 53.2353C16.0957 53.2353 9.09567 45.2353 10.0957 37.7353C11.429 27.7353 21.6466 24.9808 22.5957 20.2353C23.0957 17.7353 25.4339 12.0647 29.5957 8.73528C32.0957 6.73528 42.0957 9.23528 41.0957 11.2353ZM17.5957 32.2353C16.6567 33.1742 14.5957 31.7353 15.0957 30.7353C15.5957 29.7353 17.5957 27.7353 21.0957 25.2353C20.0957 28.7353 18.5346 31.2963 17.5957 32.2353ZM20.5957 40.7353C20.5957 38.384 21.7485 36.8734 24.0957 36.7353C26.5767 36.5893 28.0957 38.25 28.0957 40.7353C28.0957 43.2206 26.5767 44.8812 24.0957 44.7353C21.7485 44.5972 20.5957 43.0866 20.5957 40.7353ZM32.5957 45.2353C32.1804 46.2733 33.5957 47.7353 34.5957 47.2353C36.4396 46.3133 39.5957 41.7353 40.0957 38.2353C39.4062 38.9247 38.4196 39.6736 37.3818 40.4614C35.409 41.9589 33.2509 43.5971 32.5957 45.2353Z" fill="#FFFFFF"></path><path d="M22.0957 40.7353C22.0957 39.485 22.853 38.3734 24.0957 38.2353C25.4679 38.0828 26.5957 39.3546 26.5957 40.7353C26.5957 42.116 25.4679 43.3878 24.0957 43.2353C22.853 43.0972 22.0957 41.9856 22.0957 40.7353Z" fill="#FFFFFF"></path></svg>
