<svg xmlns="http://www.w3.org/2000/svg" width="62" height="62" viewBox="0 0 62 62"><path d="M28.7886 14V11.5L32.7886 11.5V14C32.7886 15 32.2886 15.5 31.2886 15.5L30.2886 15.5C29.2886 15.5 28.7886 15 28.7886 14Z" fill="#FFFFFF"></path><path fill-rule="evenodd" clip-rule="evenodd" d="M7.28856 51.5C1.2886 51.5 0.0803568 39 5.28861 26.5C5.96626 24.8736 6.71556 23.2921 7.40515 21.8366C8.70256 19.0982 9.78862 16.8059 9.78862 15.5C9.78861 12.2152 18.2885 10 19.7886 10C21.2886 10 22.7886 10.5 23.2886 11.5H26.7886V14C26.7886 16.5 28.7885 17.5 30.7886 17.5C32.7886 17.5 34.7886 16.5 34.7886 14V11.5H38.2885C38.7885 10.5 40.2885 10 41.7886 10C43.2886 10 51.7885 12.2152 51.7885 15.5C51.7885 16.8059 52.8746 19.0982 54.172 21.8366C54.8616 23.2921 55.6109 24.8736 56.2885 26.5C61.4968 39 60.2885 51.5 54.2886 51.5C52.7485 51.5 48.54 47.6457 44.8595 44.2749C43.7604 43.2683 42.7084 42.3048 41.7886 41.5L30.7886 41.5H19.7886C18.8688 42.3048 17.8168 43.2683 16.7177 44.2749C13.0372 47.6457 8.82868 51.5 7.28856 51.5ZM20.7886 21.5C20.7886 24.2614 18.55 26.5 15.7886 26.5C13.0272 26.5 10.7886 24.2614 10.7886 21.5C10.7886 18.7386 13.0272 16.5 15.7886 16.5C18.55 16.5 20.7886 18.7386 20.7886 21.5ZM15.7886 24.5C14.1318 24.5 12.7886 23.1569 12.7886 21.5C12.7886 19.8431 14.1318 18.5 15.7886 18.5C17.4455 18.5 18.7886 19.8431 18.7886 21.5C18.7886 23.1569 17.4455 24.5 15.7886 24.5ZM17.2886 30C17.2886 29.5 17.7886 29 18.2886 29H21.2886V26C21.2886 25.5 21.7886 25 22.2886 25H25.2886C25.7886 25 26.2886 25.5 26.2886 26V29H29.2886C29.7886 29 30.2886 29.5 30.2886 30V33C30.2886 33.5 29.7886 34 29.2886 34H26.2886V37C26.2886 37.5 25.7886 38 25.2886 38H22.2886C21.7886 38 21.2886 37.5 21.2886 37V34H18.2886C17.7886 34 17.2886 33.5 17.2886 33V30ZM18.7886 31C18.7886 30.5 19.2887 30.5 19.2887 30.5H22.7886V27C22.7886 27 22.7886 26.5 23.2886 26.5H24.2886C24.7886 26.5 24.7886 27 24.7886 27V30.5H28.2886C28.2886 30.5 28.7886 30.5 28.7886 31V32C28.7886 32.5 28.2886 32.5 28.2886 32.5H24.7886V36C24.7886 36 24.7886 36.5 24.2886 36.5H23.2886C22.7886 36.5 22.7886 36 22.7886 36V32.5H19.2887C19.2887 32.5 18.7886 32.5 18.7886 32V31ZM43.2885 31.5C43.2885 34.2614 41.0499 36.5 38.2885 36.5C35.5271 36.5 33.2885 34.2614 33.2885 31.5C33.2885 28.7386 35.5271 26.5 38.2885 26.5C41.0499 26.5 43.2885 28.7386 43.2885 31.5ZM38.2885 34.5C36.6317 34.5 35.2885 33.1569 35.2885 31.5C35.2885 29.8431 36.6317 28.5 38.2885 28.5C39.9454 28.5 41.2885 29.8431 41.2885 31.5C41.2885 33.1569 39.9454 34.5 38.2885 34.5ZM38.7886 21.5C38.7886 20.3954 39.6841 19.5 40.7886 19.5C41.8932 19.5 42.7886 20.3954 42.7886 21.5C42.7886 22.6046 41.8932 23.5 40.7886 23.5C39.6841 23.5 38.7886 22.6046 38.7886 21.5ZM44.7886 15.5C43.6841 15.5 42.7886 16.3954 42.7886 17.5C42.7886 18.6046 43.6841 19.5 44.7886 19.5C45.8932 19.5 46.7886 18.6046 46.7886 17.5C46.7886 16.3954 45.8932 15.5 44.7886 15.5ZM46.7886 21.5C46.7886 20.3954 47.6841 19.5 48.7886 19.5C49.8932 19.5 50.7886 20.3954 50.7886 21.5C50.7886 22.6046 49.8932 23.5 48.7886 23.5C47.6841 23.5 46.7886 22.6046 46.7886 21.5ZM44.7886 23.5C43.6841 23.5 42.7886 24.3954 42.7886 25.5C42.7886 26.6046 43.6841 27.5 44.7886 27.5C45.8932 27.5 46.7886 26.6046 46.7886 25.5C46.7886 24.3954 45.8932 23.5 44.7886 23.5Z" fill="#FFFFFF"></path></svg>
