<svg xmlns="http://www.w3.org/2000/svg" width="62" height="62" viewBox="0 0 62 62"><path d="M27.0396 21.5V13.5C27.0396 13 27.5396 12.5 28.0396 12.5H35.0395C35.5396 12.5 36.0396 13 36.0396 13.5V21.5C36.0396 22 35.5396 22.5 35.0395 22.5H28.0396C27.5396 22.5 27.0396 22 27.0396 21.5Z" fill="#FFFFFF"></path><path fill-rule="evenodd" clip-rule="evenodd" d="M20.0396 25C20.5132 24.7159 20.7926 24.494 21.0396 24C21.3889 23.3014 21.3889 22.6986 21.0396 22C20.7926 21.506 20.5132 21.2841 20.0396 21C19.566 20.7159 16.2993 21.649 16.0396 22C15.9937 22.0621 15.9483 22.1199 15.9048 22.1753C15.7024 22.4332 15.5396 22.6406 15.5396 23C15.5396 23.3594 15.7024 23.5668 15.9048 23.8247C15.9483 23.8801 15.9937 23.9379 16.0396 24C16.2993 24.351 19.566 25.2841 20.0396 25ZM8.0396 25C7.56602 24.7159 7.28659 24.494 7.0396 24C6.6903 23.3014 6.6903 22.6986 7.0396 22C7.28659 21.506 7.56602 21.2841 8.0396 21C8.51318 20.7159 11.7799 21.649 12.0396 22C12.0855 22.0621 12.1309 22.1199 12.1744 22.1753C12.3768 22.4332 12.5396 22.6406 12.5396 23C12.5396 23.3594 12.3768 23.5668 12.1744 23.8247C12.1309 23.8801 12.0855 23.9379 12.0396 24C11.7799 24.351 8.51318 25.2841 8.0396 25ZM14.0396 21.5C14.4072 21.5 14.6181 21.3326 14.8832 21.1222C14.933 21.0827 14.9846 21.0417 15.0396 21C15.3875 20.7361 16.3078 17.9828 16.0396 17.5C15.7714 17.0172 15.5336 16.747 15.0396 16.5C14.341 16.1507 13.7382 16.1507 13.0396 16.5C12.5456 16.747 12.3078 17.0172 12.0396 17.5C11.7714 17.9828 12.6918 20.7361 13.0396 21C13.0946 21.0417 13.1462 21.0827 13.196 21.1222C13.4611 21.3326 13.672 21.5 14.0396 21.5ZM14.0396 24.5C14.4072 24.5 14.6181 24.6674 14.8832 24.8778C14.933 24.9173 14.9846 24.9583 15.0396 25C15.3875 25.2639 16.3078 28.0172 16.0396 28.5C15.7714 28.9828 15.5336 29.253 15.0396 29.5C14.341 29.8493 13.7382 29.8493 13.0396 29.5C12.5456 29.253 12.3078 28.9828 12.0396 28.5C11.7714 28.0172 12.6918 25.2639 13.0396 25C13.0946 24.9583 13.1462 24.9173 13.196 24.8778C13.4611 24.6674 13.672 24.5 14.0396 24.5ZM42.0396 23C42.0396 21.8954 42.935 21 44.0396 21C45.1442 21 46.0396 21.8954 46.0396 23C46.0396 24.1046 45.1442 25 44.0396 25C42.935 25 42.0396 24.1046 42.0396 23ZM47.0396 18.5C47.0396 17.3954 47.935 16.5 49.0396 16.5C50.1441 16.5 51.0396 17.3954 51.0396 18.5C51.0396 19.6046 50.1441 20.5 49.0396 20.5C47.935 20.5 47.0396 19.6046 47.0396 18.5ZM52.0396 23C52.0396 21.8954 52.935 21 54.0396 21C55.1442 21 56.0396 21.8954 56.0396 23C56.0396 24.1046 55.1442 25 54.0396 25C52.935 25 52.0396 24.1046 52.0396 23ZM47.0396 27.5C47.0396 26.3954 47.935 25.5 49.0396 25.5C50.1441 25.5 51.0396 26.3954 51.0396 27.5C51.0396 28.6046 50.1441 29.5 49.0396 29.5C47.935 29.5 47.0396 28.6046 47.0396 27.5Z" fill="#FFFFFF"></path><path fill-rule="evenodd" clip-rule="evenodd" d="M3.03959 30C-0.460403 43.5 0.0395975 50 8.53959 50.5C13.6278 50.7993 15.7243 45.3994 17.3271 41.2711C18.0868 39.3143 18.7356 37.6431 19.5396 37C21.0396 41 27.0396 41 28.5396 37H31.5396L34.5396 37C36.0395 41 42.0395 41 43.5396 37C44.3435 37.6431 44.9923 39.3143 45.752 41.2711C47.3548 45.3994 49.4513 50.7993 54.5395 50.5C63.0395 50 63.5395 43.5 60.0395 30C59.7735 28.974 59.4231 28.0809 59.0899 27.232C58.5412 25.8339 58.0395 24.5555 58.0395 23C58.0395 17 53.0395 12 49.0396 12C46.0395 12 45.0396 12.5 44.0396 13.5H37.0396V22C37.0396 23 36.5396 23.5 35.5396 23.5H27.5396C26.5396 23.5 26.0396 23 26.0396 22V13.5H19.0396C18.0396 12.5 17.0396 12 14.0396 12C10.0396 12 5.0396 17 5.0396 23C5.0396 24.5555 4.5379 25.8339 3.98922 27.232C3.65607 28.0809 3.3056 28.974 3.03959 30ZM24.0396 30.5C21.8305 30.5 20.0396 32.2909 20.0396 34.5C20.0396 36.7091 21.8305 38.5 24.0396 38.5C26.2487 38.5 28.0396 36.7091 28.0396 34.5C28.0396 32.2909 26.2487 30.5 24.0396 30.5ZM6.03959 23C6.03959 18.7176 9.75714 15.5 14.0396 15.5C18.322 15.5 22.0396 18.7176 22.0396 23C22.0396 27.2824 18.322 30.5 14.0396 30.5C9.75714 30.5 6.03959 27.2824 6.03959 23ZM25.0396 16C25.0396 16 25.0396 15 24.0396 15C23.0396 15 23.0396 16 23.0396 16V19C23.0396 19 23.0396 20 24.0396 20C25.0396 20 25.0396 19 25.0396 19V16ZM39.0395 30.5C41.2487 30.5 43.0395 32.2909 43.0395 34.5C43.0395 36.7091 41.2487 38.5 39.0395 38.5C36.8304 38.5 35.0395 36.7091 35.0395 34.5C35.0395 32.2909 36.8304 30.5 39.0395 30.5ZM57.0395 23C57.0395 18.7176 53.322 15.5 49.0396 15.5C44.7571 15.5 41.0395 18.7176 41.0395 23C41.0395 27.2824 44.7571 30.5 49.0396 30.5C53.322 30.5 57.0395 27.2824 57.0395 23ZM38.0395 16C38.0395 16 38.0395 15 39.0395 15C40.0395 15 40.0395 16 40.0395 16V19C40.0395 19 40.0395 20 39.0395 20C38.0395 20 38.0395 19 38.0395 19V16Z" fill="#FFFFFF"></path></svg>
