<svg width="199" height="51" viewBox="0 0 199 51" fill="none" xmlns="http://www.w3.org/2000/svg">
<g clip-path="url(#clip0)">
<path d="M16.5 49C15.5 41 14.5 38.5 15 37.5C15.5 36.5 16.5 36.5 17 37.5C17.5 38.5 16.5 41 16.5 49Z" fill="white"/>
<path d="M9.5 2C5.50001 7 5.00001 8.5 5.00001 8.5C5.00001 8.5 5.50001 14 7.00001 18C7.00001 18 9 17 10.5 17C6.75 19.2489 4 23 4 27C3 27.5 2 28.5 2 29.5C2.5 31 4 33.8333 6 34.5C7.00001 34.8333 8.50001 35 9.5 34.5C7 33.5 6 31.5 6 31.5C6 31.5 7.50001 33 10.5 33C12 33 13 34 14 35C13 35 12 35 11.5 35.5C11 40.5 12 46.5 14.5 49C12.5 48 11.5 47 9.5 45C9.5 45 11 46 12 46.5C11 43.5 10 39 10 36C8 36.5 6.49999 36.5 5 36C3.50001 35.5 0.5 31.5 0 29C7.62939e-06 27.5 0.999999 27 2 26.5C2.50001 25.5 2.50001 24.5 2.00001 23.5C2.00001 22.5 3 21 5 19.5C5 19.5 3.5 15 3.5 8.5L6.75 5L9.5 2Z" fill="#DD163B"/>
<path d="M10 31C6.00001 27 5.50001 22 10.5 20.5C12 23.5 15.5 26 18 26L18 27C15.5 27 14 29.5 10 31Z" fill="white"/>
<path d="M19.567 49C20.567 41 21.567 38.5 21.067 37.5C20.567 36.5 19.567 36.5 19.067 37.5C18.567 38.5 19.567 41 19.567 49Z" fill="white"/>
<path d="M18 30.5C17.5 32.5 16.5 33 16.5 33C17.5 34 18.5 34 19.5 33C19.5 33 18.5 32.5 18 30.5Z" fill="white"/>
<path d="M26.5 2C30.5 7 31 8.5 31 8.5C31 8.5 30.5 14 29 18C29 18 27 17 25.5 17C29.25 19.2489 32 23 32 27C33 27.5 34 28.5 34 29.5C33.5 31 32 33.8333 30 34.5C29 34.8333 27.5 35 26.5 34.5C29 33.5 30 31.5 30 31.5C30 31.5 28.5 33 25.5 33C24 33 23 34 22 35C23 35 24 35 24.5 35.5C25 40.5 24 46.5 21.5 49C23.5 48 24.5 47 26.5 45C26.5 45 25 46 24 46.5C25 43.5 26 39 26 36C28 36.5 29.5 36.5 31 36C32.5 35.5 35.5 31.5 36 29C36 27.5 35 27 34 26.5C33.5 25.5 33.5 24.5 34 23.5C34 22.5 33 21 31 19.5C31 19.5 32.5 15 32.5 8.5L29.25 5L26.5 2Z" fill="#DD163B"/>
<path d="M10 22C11.5 24.5 13.5 25.5 17 26.5C14 26.5 12.4031 28.4585 10.5692 28C9.26259 27.6733 7.5 24 10 22Z" fill="#171D21"/>
<path d="M26 31C30 27 30.5 22 25.5 20.5C24 23.5 20.5001 26 18 26L18 27C20.5 27 22 29.5 26 31Z" fill="white"/>
<path d="M26 22C24.5 24.5 22.5 25.5 19 26.5C22 26.5 23.5969 28.4585 25.4308 28C26.7375 27.6733 28.5 24 26 22Z" fill="#171D21"/>
<path d="M71.6656 33.372C70.1676 33.372 68.8516 33.099 67.7176 32.553C66.5976 31.993 65.7296 31.216 65.1136 30.222C64.5116 29.228 64.2106 28.087 64.2106 26.799C64.2106 25.091 64.6026 23.572 65.3866 22.242C66.1846 20.898 67.2836 19.855 68.6836 19.113C70.0976 18.371 71.6936 18 73.4716 18C74.9696 18 76.2786 18.28 77.3986 18.84C78.5326 19.386 79.4006 20.156 80.0026 21.15C80.6186 22.144 80.9266 23.285 80.9266 24.573C80.9266 26.281 80.5276 27.807 79.7296 29.151C78.9456 30.481 77.8466 31.517 76.4326 32.259C75.0326 33.001 73.4436 33.372 71.6656 33.372ZM72.0856 29.361C72.8696 29.361 73.5486 29.158 74.1226 28.752C74.7106 28.346 75.1586 27.8 75.4666 27.114C75.7746 26.428 75.9286 25.679 75.9286 24.867C75.9286 23.999 75.6696 23.306 75.1516 22.788C74.6476 22.27 73.9476 22.011 73.0516 22.011C72.2676 22.011 71.5816 22.214 70.9936 22.62C70.4196 23.026 69.9786 23.572 69.6706 24.258C69.3626 24.944 69.2086 25.693 69.2086 26.505C69.2086 27.373 69.4606 28.066 69.9646 28.584C70.4826 29.102 71.1896 29.361 72.0856 29.361Z" fill="white"/>
<path d="M89.6764 33.372C88.1784 33.372 86.8624 33.099 85.7284 32.553C84.6084 31.993 83.7404 31.216 83.1244 30.222C82.5224 29.228 82.2214 28.087 82.2214 26.799C82.2214 25.091 82.6134 23.572 83.3974 22.242C84.1954 20.898 85.2944 19.855 86.6944 19.113C88.1084 18.371 89.7044 18 91.4824 18C92.9804 18 94.2894 18.28 95.4094 18.84C96.5434 19.386 97.4114 20.156 98.0134 21.15C98.6294 22.144 98.9374 23.285 98.9374 24.573C98.9374 26.281 98.5384 27.807 97.7404 29.151C96.9564 30.481 95.8574 31.517 94.4434 32.259C93.0434 33.001 91.4544 33.372 89.6764 33.372ZM90.0964 29.361C90.8804 29.361 91.5594 29.158 92.1334 28.752C92.7214 28.346 93.1694 27.8 93.4774 27.114C93.7854 26.428 93.9394 25.679 93.9394 24.867C93.9394 23.999 93.6804 23.306 93.1624 22.788C92.6584 22.27 91.9584 22.011 91.0624 22.011C90.2784 22.011 89.5924 22.214 89.0044 22.62C88.4304 23.026 87.9894 23.572 87.6814 24.258C87.3734 24.944 87.2194 25.693 87.2194 26.505C87.2194 27.373 87.4714 28.066 87.9754 28.584C88.4934 29.102 89.2004 29.361 90.0964 29.361Z" fill="white"/>
<path d="M102.353 18.336H108.989C110.529 18.336 111.859 18.588 112.979 19.092C114.113 19.596 114.981 20.317 115.583 21.255C116.185 22.193 116.486 23.299 116.486 24.573C116.486 26.267 116.094 27.758 115.31 29.046C114.526 30.32 113.434 31.307 112.034 32.007C110.648 32.693 109.066 33.036 107.288 33.036H99.4132L102.353 18.336ZM107.456 29.172C108.73 29.172 109.717 28.773 110.417 27.975C111.131 27.163 111.488 26.127 111.488 24.867C111.488 24.013 111.222 23.355 110.69 22.893C110.172 22.431 109.416 22.2 108.422 22.2H106.532L105.146 29.172H107.456Z" fill="white"/>
<path d="M144.032 30.474H138.425L136.955 33.036H131.726L141.092 18.336H145.964L149.45 33.036H144.515L144.032 30.474ZM143.339 26.904L142.625 23.145L140.462 26.904H143.339Z" fill="white"/>
<path d="M170.989 18.336L168.091 33.036H163.576L164.878 26.337L160.741 31.713H158.557L156.289 26.421L154.966 33.036H150.451L153.391 18.336H157.423L160.615 26.148L166.768 18.336H170.989Z" fill="white"/>
<path d="M177.754 22.074L177.418 23.796H183.634L182.92 27.366H176.683L176.305 29.298H183.676L182.92 33.036H170.698L173.638 18.336H185.587L184.831 22.074H177.754Z" fill="white"/>
<path d="M190.875 33.372C189.601 33.372 188.404 33.239 187.284 32.973C186.164 32.693 185.24 32.329 184.512 31.881L186.423 28.227C188.005 29.137 189.657 29.592 191.379 29.592C192.009 29.592 192.492 29.515 192.828 29.361C193.164 29.207 193.332 28.997 193.332 28.731C193.332 28.479 193.157 28.276 192.807 28.122C192.471 27.968 191.932 27.8 191.19 27.618C190.21 27.366 189.398 27.114 188.754 26.862C188.11 26.596 187.543 26.197 187.053 25.665C186.577 25.119 186.339 24.405 186.339 23.523C186.339 22.417 186.633 21.451 187.221 20.625C187.823 19.785 188.684 19.141 189.804 18.693C190.924 18.231 192.247 18 193.773 18C194.865 18 195.88 18.112 196.818 18.336C197.77 18.546 198.589 18.854 199.275 19.26L197.49 22.872C196.916 22.508 196.279 22.235 195.579 22.053C194.893 21.871 194.186 21.78 193.458 21.78C192.772 21.78 192.24 21.878 191.862 22.074C191.484 22.27 191.295 22.501 191.295 22.767C191.295 23.033 191.463 23.243 191.799 23.397C192.149 23.551 192.716 23.719 193.5 23.901C194.452 24.125 195.25 24.363 195.894 24.615C196.552 24.867 197.119 25.259 197.595 25.791C198.071 26.323 198.309 27.023 198.309 27.891C198.309 28.983 198.008 29.942 197.406 30.768C196.804 31.594 195.943 32.238 194.823 32.7C193.703 33.148 192.387 33.372 190.875 33.372Z" fill="white"/>
<path d="M58.458 25.323H62.763L61.503 31.665C60.719 32.225 59.816 32.659 58.794 32.967C57.786 33.261 56.701 33.408 55.539 33.408C54.041 33.408 52.718 33.135 51.57 32.589C50.436 32.029 49.554 31.252 48.924 30.258C48.308 29.264 48 28.123 48 26.835C48 25.127 48.399 23.608 49.197 22.278C49.995 20.948 51.108 19.912 52.536 19.17C53.964 18.414 55.602 18.036 57.45 18.036C60.502 18.036 62.728 18.995 64.128 20.913L60.579 23.664C60.117 23.076 59.62 22.663 59.088 22.425C58.556 22.173 57.933 22.047 57.219 22.047C56.365 22.047 55.616 22.236 54.972 22.614C54.342 22.992 53.852 23.524 53.502 24.21C53.166 24.882 52.998 25.652 52.998 26.52C52.998 27.388 53.285 28.088 53.859 28.62C54.433 29.138 55.224 29.397 56.232 29.397C56.736 29.397 57.219 29.327 57.681 29.187L58.458 25.323Z" fill="#DD163B"/>
<path d="M128.458 25.323H132.763L131.503 31.665C130.719 32.225 129.816 32.659 128.794 32.967C127.786 33.261 126.701 33.408 125.539 33.408C124.041 33.408 122.718 33.135 121.57 32.589C120.436 32.029 119.554 31.252 118.924 30.258C118.308 29.264 118 28.123 118 26.835C118 25.127 118.399 23.608 119.197 22.278C119.995 20.948 121.108 19.912 122.536 19.17C123.964 18.414 125.602 18.036 127.45 18.036C130.502 18.036 132.728 18.995 134.128 20.913L130.579 23.664C130.117 23.076 129.62 22.663 129.088 22.425C128.556 22.173 127.933 22.047 127.219 22.047C126.365 22.047 125.616 22.236 124.972 22.614C124.342 22.992 123.852 23.524 123.502 24.21C123.166 24.882 122.998 25.652 122.998 26.52C122.998 27.388 123.285 28.088 123.859 28.62C124.433 29.138 125.224 29.397 126.232 29.397C126.736 29.397 127.219 29.327 127.681 29.187L128.458 25.323Z" fill="#DD163B"/>
</g>
<defs>
<clipPath id="clip0">
<rect width="199" height="51" fill="white"/>
</clipPath>
</defs>
</svg>
